<svg xmlns="http://www.w3.org/2000/svg" viewBox="0 0 512 512" width="512" height="512" role="img" aria-label="Bringo">
  <rect width="512" height="512" rx="112" fill="#09090b"/>
  <path fill="#f59e0b" d="M279.7 458.1c-7.7 9.8-23.4 4.4-23.4-7.9V328.3c0-16.4-13.3-29.7-29.7-29.7H122.4c-10.9 0-17.2-12.1-11.1-21l85.8-120.1c12.2-17.1 0-40.1-21-40.1H31.3c-10.9 0-17.2-12.1-11.1-21L118.4 8c2.4-3.4 6.4-5.5 10.6-5.5h330.9c10.9 0 17.2 12.1 11.1 21l-85.8 120.1c-12.2 17.1 0 40.1 21 40.1h129.4c10.9 0 17.2 12.1 11.1 21L279.7 458.1z"/>
</svg>
